<svg width="162" height="33" viewBox="0 0 162 33" fill="none" xmlns="http://www.w3.org/2000/svg" xmlns:xlink="http://www.w3.org/1999/xlink">
<path d="M 295.500 139.155 C 291.133 141.544, 291 142.357, 291 166.757 C 291 180.876, 291.408 190.893, 292.030 192.055 C 293.246 194.329, 298.057 197, 300.935 197 C 302.053 197, 304.438 195.688, 306.234 194.084 L 309.500 191.168 309.812 170.334 C 309.983 158.875, 309.841 147.989, 309.496 146.141 C 308.277 139.614, 301.157 136.060, 295.500 139.155 M 203.304 163.956 C 199.922 166.018, 198.198 170.899, 199.454 174.855 C 200.777 179.022, 220.133 211.586, 222.574 213.750 C 225.299 216.167, 228.368 216.571, 232.387 215.043 C 234.989 214.054, 238 209.402, 238 206.371 C 238 203.889, 218.095 169.304, 214.382 165.334 C 210.788 161.491, 207.930 161.136, 203.304 163.956 M 388.009 163.290 C 386.639 163.983, 383.776 167.431, 381.647 170.952 C 374.331 183.051, 363.182 202.851, 362.532 204.899 C 361.636 207.724, 364.560 213.479, 367.595 214.861 C 371.983 216.861, 375.054 216.227, 378.382 212.634 C 381.505 209.263, 396 184.882, 396 183 C 396 182.450, 396.367 182, 396.815 182 C 398.161 182, 401 175.150, 401 171.900 C 401 167.814, 399.520 165.320, 396.020 163.510 C 392.490 161.685, 391.249 161.651, 388.009 163.290 M 291 222.460 C 290.175 222.658, 286.125 223.363, 282 224.026 C 240.678 230.671, 206.239 261.428, 194.127 302.505 C 190.623 314.388, 190.040 322.296, 190.020 358.250 L 190 393 300 393 L 410 393 409.983 355.750 C 409.964 316.400, 409.615 312.464, 404.864 298.013 C 398.438 278.470, 383.924 257.900, 368.500 246.474 C 366.300 244.845, 364.275 243.247, 364 242.923 C 363.725 242.599, 359.984 240.212, 355.686 237.618 C 340.593 228.508, 321.756 223.087, 303 222.454 C 297.225 222.260, 291.825 222.262, 291 222.460 M 135.656 231.133 C 134.642 231.722, 133.159 233.768, 132.361 235.679 C 131.051 238.813, 131.085 239.511, 132.704 242.789 C 134.198 245.813, 136.939 247.835, 149 254.813 C 171.170 267.640, 174.638 269.308, 177.595 268.565 C 184.332 266.875, 187.157 259.012, 182.949 253.663 C 181.821 252.229, 176.309 248.459, 170.699 245.284 C 165.090 242.110, 156.900 237.373, 152.500 234.757 C 144.288 229.875, 139.567 228.859, 135.656 231.133 M 440 239.191 C 431.475 244.189, 423.274 248.918, 421.775 249.700 C 414.441 253.526, 413.020 260.220, 418.400 265.600 C 422.419 269.619, 424.699 269.817, 430.322 266.637 C 451.866 254.450, 465.186 246.452, 466.671 244.811 C 467.761 243.607, 468.455 241.274, 468.455 238.814 C 468.455 235.650, 467.858 234.275, 465.672 232.394 C 460.720 228.135, 457.324 229.034, 440 239.191 M 296.209 259.990 C 292.973 261.369, 290.954 266.568, 292.231 270.233 C 293.641 274.278, 296.445 275.673, 304.563 276.372 C 324.472 278.084, 341.018 289.519, 350.521 308.133 C 353.644 314.251, 355.057 319.901, 356.544 332.222 C 356.963 335.690, 357.799 337.483, 359.692 338.972 C 362.868 341.471, 368.158 341.610, 370.217 339.250 C 373.853 335.080, 374.209 333.165, 373.020 324.162 C 370.865 307.840, 364.346 294.060, 353.278 282.427 C 343.250 271.887, 334.211 266.231, 320.913 262.175 C 313.159 259.810, 299.473 258.599, 296.209 259.990 M 113.159 322.027 C 106.049 324.991, 105.069 334.809, 111.442 339.235 C 112.024 339.639, 123.334 339.976, 136.576 339.985 C 160.582 340, 160.658 339.993, 162.865 337.643 C 164.083 336.347, 165.335 333.709, 165.648 331.781 C 166.124 328.850, 165.721 327.719, 163.192 324.887 L 160.167 321.500 137.834 321.276 C 125.019 321.147, 114.502 321.467, 113.159 322.027 M 441.500 321.716 C 438.487 322.445, 435.180 325.905, 434.488 329.053 C 433.771 332.319, 436.068 337.431, 438.945 338.970 C 440.108 339.593, 450.199 340, 464.482 340 L 488.095 340 490.548 337.354 C 493.205 334.487, 493.813 329.388, 491.920 325.850 C 489.710 321.720, 485.382 320.992, 463.782 321.116 C 452.627 321.180, 442.600 321.450, 441.500 321.716 M 178.168 412.603 C 172.913 415.222, 169.775 418.533, 166.420 425 C 164.940 427.855, 164.528 431.589, 164.187 445.250 L 163.769 462 299.885 462 L 436 462 436 446.678 C 436 429.602, 434.973 424.850, 429.974 418.784 C 428.340 416.802, 424.664 414.015, 421.805 412.590 L 416.607 410 300 410 L 183.393 410 178.168 412.603" transform="scale(0.0564, 0.0564)" fill="#2463EB" fill-rule="evenodd"/>
<path d="M32.7216 26V8.54545H39.4034C40.6648 8.54545 41.7131 8.74432 42.5483 9.14204C43.3892 9.53409 44.017 10.071 44.4318 10.7528C44.8523 11.4347 45.0625 12.2074 45.0625 13.071C45.0625 13.7812 44.9261 14.3892 44.6534 14.8949C44.3807 15.3949 44.0142 15.8011 43.554 16.1136C43.0938 16.4261 42.5795 16.6506 42.0114 16.7869V16.9574C42.6307 16.9915 43.2244 17.1818 43.7926 17.5284C44.3665 17.8693 44.8352 18.3523 45.1989 18.9773C45.5625 19.6023 45.7443 20.358 45.7443 21.2443C45.7443 22.1477 45.5256 22.9602 45.0881 23.6818C44.6506 24.3977 43.9915 24.9631 43.1108 25.3778C42.2301 25.7926 41.1222 26 39.7869 26H32.7216ZM35.8835 23.358H39.2841C40.4318 23.358 41.2585 23.1392 41.7642 22.7017C42.2756 22.2585 42.5312 21.6903 42.5312 20.9972C42.5312 20.4801 42.4034 20.0142 42.1477 19.5994C41.892 19.179 41.5284 18.8494 41.0568 18.6108C40.5852 18.3665 40.0227 18.2443 39.3693 18.2443H35.8835V23.358ZM35.8835 15.9688H39.0114C39.5568 15.9688 40.0483 15.8693 40.4858 15.6705C40.9233 15.4659 41.267 15.179 41.517 14.8097C41.7727 14.4347 41.9006 13.9915 41.9006 13.4801C41.9006 12.804 41.6619 12.2472 41.1847 11.8097C40.7131 11.3722 40.0114 11.1534 39.0795 11.1534H35.8835V15.9688ZM51.6457 26.2642C50.8162 26.2642 50.069 26.1165 49.4042 25.821C48.7451 25.5199 48.2224 25.0767 47.8361 24.4915C47.4554 23.9062 47.265 23.1847 47.265 22.3267C47.265 21.5881 47.4014 20.9773 47.6741 20.4943C47.9468 20.0114 48.319 19.625 48.7906 19.3352C49.2622 19.0455 49.7934 18.8267 50.3843 18.679C50.9809 18.5256 51.5974 18.4148 52.2338 18.3466C53.0008 18.267 53.623 18.196 54.1003 18.1335C54.5775 18.0653 54.9241 17.9631 55.14 17.8267C55.3616 17.6847 55.4724 17.4659 55.4724 17.1705V17.1193C55.4724 16.4773 55.2821 15.9801 54.9014 15.6278C54.5207 15.2756 53.9724 15.0994 53.2565 15.0994C52.5008 15.0994 51.9014 15.2642 51.4582 15.5938C51.0207 15.9233 50.7253 16.3125 50.5718 16.7614L47.6912 16.3523C47.9184 15.5568 48.2934 14.892 48.8162 14.358C49.3389 13.8182 49.9781 13.4148 50.7338 13.1477C51.4895 12.875 52.3247 12.7386 53.2395 12.7386C53.8701 12.7386 54.498 12.8125 55.123 12.9602C55.748 13.108 56.319 13.3523 56.8361 13.6932C57.3531 14.0284 57.7679 14.4858 58.0804 15.0653C58.3986 15.6449 58.5576 16.3693 58.5576 17.2386V26H55.5917V24.2017H55.4895C55.302 24.5653 55.0378 24.9062 54.6968 25.2244C54.3616 25.5369 53.9383 25.7898 53.427 25.983C52.9213 26.1705 52.3275 26.2642 51.6457 26.2642ZM52.4468 23.9972C53.0662 23.9972 53.6031 23.875 54.0576 23.6307C54.5122 23.3807 54.8616 23.0511 55.1059 22.642C55.3559 22.233 55.4809 21.7869 55.4809 21.304V19.7614C55.3843 19.8409 55.2196 19.9148 54.9866 19.983C54.7593 20.0511 54.5037 20.1108 54.2196 20.1619C53.9355 20.2131 53.6542 20.2585 53.3758 20.2983C53.0974 20.3381 52.8559 20.3722 52.6514 20.4006C52.1912 20.4631 51.7792 20.5653 51.4156 20.7074C51.052 20.8494 50.765 21.0483 50.5548 21.304C50.3446 21.554 50.2395 21.8778 50.2395 22.2756C50.2395 22.8438 50.4468 23.2727 50.8616 23.5625C51.2764 23.8523 51.8048 23.9972 52.4468 23.9972ZM62.6288 30.9091C62.2083 30.9091 61.8191 30.875 61.4612 30.8068C61.1089 30.7443 60.8276 30.6705 60.6174 30.5852L61.3333 28.1818C61.7822 28.3125 62.1828 28.375 62.535 28.3693C62.8873 28.3636 63.197 28.2528 63.464 28.0369C63.7367 27.8267 63.9668 27.4744 64.1543 26.9801L64.4186 26.2727L59.6714 12.9091H62.9441L65.9612 22.7955H66.0975L69.1231 12.9091H72.4043L67.1629 27.5852C66.9186 28.2784 66.5947 28.8722 66.1913 29.3665C65.7879 29.8665 65.2936 30.2472 64.7083 30.5085C64.1288 30.7756 63.4356 30.9091 62.6288 30.9091ZM77.4513 26.2642C76.6218 26.2642 75.8746 26.1165 75.2099 25.821C74.5508 25.5199 74.028 25.0767 73.6417 24.4915C73.261 23.9062 73.0707 23.1847 73.0707 22.3267C73.0707 21.5881 73.207 20.9773 73.4797 20.4943C73.7525 20.0114 74.1246 19.625 74.5962 19.3352C75.0678 19.0455 75.5991 18.8267 76.19 18.679C76.7866 18.5256 77.403 18.4148 78.0394 18.3466C78.8065 18.267 79.4286 18.196 79.9059 18.1335C80.3832 18.0653 80.7297 17.9631 80.9457 17.8267C81.1672 17.6847 81.278 17.4659 81.278 17.1705V17.1193C81.278 16.4773 81.0877 15.9801 80.707 15.6278C80.3263 15.2756 79.778 15.0994 79.0621 15.0994C78.3065 15.0994 77.707 15.2642 77.2638 15.5938C76.8263 15.9233 76.5309 16.3125 76.3775 16.7614L73.4968 16.3523C73.7241 15.5568 74.0991 14.892 74.6218 14.358C75.1445 13.8182 75.7837 13.4148 76.5394 13.1477C77.2951 12.875 78.1303 12.7386 79.0451 12.7386C79.6758 12.7386 80.3036 12.8125 80.9286 12.9602C81.5536 13.108 82.1246 13.3523 82.6417 13.6932C83.1587 14.0284 83.5735 14.4858 83.886 15.0653C84.2042 15.6449 84.3633 16.3693 84.3633 17.2386V26H81.3974V24.2017H81.2951C81.1076 24.5653 80.8434 24.9062 80.5025 25.2244C80.1672 25.5369 79.744 25.7898 79.2326 25.983C78.7269 26.1705 78.1332 26.2642 77.4513 26.2642ZM78.2525 23.9972C78.8718 23.9972 79.4087 23.875 79.8633 23.6307C80.3178 23.3807 80.6672 23.0511 80.9116 22.642C81.1616 22.233 81.2866 21.7869 81.2866 21.304V19.7614C81.19 19.8409 81.0252 19.9148 80.7922 19.983C80.565 20.0511 80.3093 20.1108 80.0252 20.1619C79.7411 20.2131 79.4599 20.2585 79.1815 20.2983C78.903 20.3381 78.6616 20.3722 78.457 20.4006C77.9968 20.4631 77.5849 20.5653 77.2212 20.7074C76.8576 20.8494 76.5707 21.0483 76.3604 21.304C76.1502 21.554 76.0451 21.8778 76.0451 22.2756C76.0451 22.8438 76.2525 23.2727 76.6672 23.5625C77.082 23.8523 77.6104 23.9972 78.2525 23.9972ZM90.0708 18.3295V26H86.9855V12.9091H89.9344V15.1335H90.0878C90.389 14.4006 90.8691 13.8182 91.5282 13.3864C92.1929 12.9545 93.014 12.7386 93.9912 12.7386C94.8946 12.7386 95.6816 12.9318 96.352 13.3182C97.0282 13.7045 97.5509 14.2642 97.9202 14.9972C98.2952 15.7301 98.4799 16.6193 98.4742 17.6648V26H95.389V18.142C95.389 17.267 95.1617 16.5824 94.7071 16.0881C94.2583 15.5937 93.6361 15.3466 92.8407 15.3466C92.3009 15.3466 91.8208 15.4659 91.4003 15.7045C90.9855 15.9375 90.6588 16.2756 90.4202 16.7188C90.1872 17.1619 90.0708 17.6989 90.0708 18.3295ZM101.131 26V12.9091H104.216V26H101.131ZM102.682 11.0511C102.193 11.0511 101.773 10.8892 101.42 10.5653C101.068 10.2358 100.892 9.84091 100.892 9.38068C100.892 8.91477 101.068 8.51989 101.42 8.19602C101.773 7.86648 102.193 7.7017 102.682 7.7017C103.176 7.7017 103.596 7.86648 103.943 8.19602C104.295 8.51989 104.471 8.91477 104.471 9.38068C104.471 9.84091 104.295 10.2358 103.943 10.5653C103.596 10.8892 103.176 11.0511 102.682 11.0511ZM121.388 8.54545V26H118.576L110.352 14.1108H110.207V26H107.045V8.54545H109.874L118.09 20.4432H118.244V8.54545H121.388ZM129.928 26.2557C128.649 26.2557 127.541 25.9744 126.604 25.4119C125.666 24.8494 124.939 24.0625 124.422 23.0511C123.911 22.0398 123.655 20.858 123.655 19.5057C123.655 18.1534 123.911 16.9687 124.422 15.9517C124.939 14.9347 125.666 14.1449 126.604 13.5824C127.541 13.0199 128.649 12.7386 129.928 12.7386C131.206 12.7386 132.314 13.0199 133.252 13.5824C134.189 14.1449 134.913 14.9347 135.425 15.9517C135.942 16.9687 136.2 18.1534 136.2 19.5057C136.2 20.858 135.942 22.0398 135.425 23.0511C134.913 24.0625 134.189 24.8494 133.252 25.4119C132.314 25.9744 131.206 26.2557 129.928 26.2557ZM129.945 23.7841C130.638 23.7841 131.217 23.5937 131.683 23.2131C132.149 22.8267 132.496 22.3097 132.723 21.6619C132.956 21.0142 133.073 20.2926 133.073 19.4972C133.073 18.696 132.956 17.9716 132.723 17.3239C132.496 16.6705 132.149 16.1506 131.683 15.7642C131.217 15.3778 130.638 15.1847 129.945 15.1847C129.234 15.1847 128.644 15.3778 128.172 15.7642C127.706 16.1506 127.357 16.6705 127.124 17.3239C126.896 17.9716 126.783 18.696 126.783 19.4972C126.783 20.2926 126.896 21.0142 127.124 21.6619C127.357 22.3097 127.706 22.8267 128.172 23.2131C128.644 23.5937 129.234 23.7841 129.945 23.7841ZM140.666 26L136.967 12.9091H140.112L142.413 22.1136H142.532L144.884 12.9091H147.995L150.348 22.0625H150.475L152.742 12.9091H155.896L152.188 26H148.975L146.521 17.1534H146.342L143.887 26H140.666Z" fill="#2463EB"/>
</svg>
